<?xml version="1.0" encoding="UTF-8" standalone="no"?>
<svg
   xmlns:dc="http://purl.org/dc/elements/1.1/"
   xmlns:cc="http://creativecommons.org/ns#"
   xmlns:rdf="http://www.w3.org/1999/02/22-rdf-syntax-ns#"
   xmlns:svg="http://www.w3.org/2000/svg"
   xmlns="http://www.w3.org/2000/svg"
   height="48.700001"
   width="289.20001"
   xml:space="preserve"
   enable-background="new 0 0 960 560"
   viewBox="0 0 289.20001 48.700001"
   y="0px"
   x="0px"
   id="Layer_1"
   version="1.1"><metadata
     id="metadata3549"><rdf:RDF><cc:Work
         rdf:about=""><dc:format>image/svg+xml</dc:format><dc:type
           rdf:resource="http://purl.org/dc/dcmitype/StillImage" /><dc:title></dc:title></cc:Work></rdf:RDF></metadata><defs
     id="defs3547" /><polygon
     transform="translate(-334.9,-255.6)"
     style="fill:#354c9f"
     id="polygon3513"
     points="336.6,257 376.7,257 376.7,292.3 356.6,300.7 336.6,292.3 " /><polygon
     transform="translate(-334.9,-255.6)"
     style="fill:#a7d2ee"
     id="polygon3515"
     points="356.2,300.7 362.9,298.1 361.9,284.9 355.2,266.7 348.1,257.8 337.3,258.4 337.8,276.4 342.6,294.8 " /><path
     style="fill:#ffffff"
     id="path3517"
     d="m 38.8,1.3 -7.7,0 C 26,4.1 20.6,13.2 20.6,13.2 l 3.3,6.6 c 0.2,-0.4 0.3,1 0.5,0.6 l 2.9,10.3 C 32.3,16.5 41.2,14.1 41.2,14.1 L 41.5,3.4 C 40.7,3.8 39.6,0.9 38.8,1.3 Z" /><path
     style="fill:#354c9f"
     id="path3519"
     d="M 8.4,38.7 6,38.7 C 6,26.8 0.5,21.8 0.4,21.7 L 2,19.9 c 0.3,0.2 6.4,5.9 6.4,18.8 z" /><path
     style="fill:#354d9f"
     id="path3521"
     d="M 0,0 0,38.1 21.7,47.3 43.4,38.1 43.4,0 0,0 Z m 26.7,41.5 -4,1.7 C 23.3,23.1 12.3,9.3 6.4,3.4 l 5,0 c 2.6,2.6 7.8,8.4 11.4,17.1 0,0 0,0 0,0 l 0,0 c 2.5,5.7 4.1,12.8 3.9,21 z M 3.4,3.7 C 8.6,8.4 20.9,21.9 20.1,42.9 L 15.5,41 C 15.4,23.3 6.9,13.8 3.4,10.6 l 0,-6.9 z M 30,3.4 l 7.3,0 C 30.7,8.1 26.4,14 24.3,17.5 23.5,15.8 22.7,14.2 21.9,12.7 22.4,11.4 24.6,7.2 30,3.4 Z m -9.7,6.7 C 18.4,7.2 16.5,5 15,3.3 l 10.9,0 c -3.1,2.6 -4.7,5.1 -5.6,6.8 z m 5.2,10.2 c 1.1,-2.1 5.6,-10 14.6,-15.9 l 0,8 c -6.4,4.4 -10.6,11.1 -12.6,14.9 -0.5,-2.6 -1.2,-4.9 -2,-7 z M 3.4,14.1 C 7,18 12.7,26.3 13,40 l -9.6,-4.1 0,-21.8 z m 25.2,26.6 c 0.2,-3.3 0,-6.4 -0.3,-9.4 l 0,0 c 0,-0.1 4.1,-10 11.9,-16 l 0,20.5 -11.6,4.9 z" /><g
     transform="translate(-334.9,-255.6)"
     id="g3523"><g
       id="g3525"><path
         style="fill:#3e4555"
         id="path3527"
         d="m 394.2,261.7 c -0.7,-0.7 -1,-1.5 -1,-2.5 0,-1 0.3,-1.8 1,-2.5 0.7,-0.7 1.5,-1 2.5,-1 1,0 1.8,0.3 2.5,1 0.7,0.7 1,1.5 1,2.5 0,1 -0.3,1.8 -1,2.5 -0.7,0.7 -1.5,1 -2.5,1 -1,0 -1.8,-0.3 -2.5,-1 z m 5.2,31.8 -5.6,0 0,-26.5 5.6,0 0,26.5 z" /><path
         style="fill:#3e4555"
         id="path3529"
         d="m 411.5,279.2 0,14.4 -5.6,0 0,-26.6 5.6,0 0,4.8 c 0.9,-1.6 2.1,-2.9 3.7,-3.8 1.6,-0.9 3.3,-1.4 5.1,-1.4 3,0 5.4,0.9 7.3,2.7 1.8,1.8 2.8,4.5 2.8,7.9 l 0,16.3 -5.6,0 0,-14.5 c 0,-4.9 -2,-7.3 -6.1,-7.3 -1.9,0 -3.6,0.6 -5,1.9 -1.5,1.2 -2.2,3.1 -2.2,5.6 z" /><path
         style="fill:#3e4555"
         id="path3531"
         d="m 442.2,271.5 0,13.5 c 0,1.3 0.3,2.3 1,3 0.7,0.7 1.6,1.1 2.8,1.1 1.2,0 2.3,-0.6 3.4,-1.7 l 2.3,3.9 c -2,1.8 -4.1,2.6 -6.5,2.6 -2.4,0 -4.4,-0.8 -6.1,-2.5 -1.7,-1.6 -2.5,-3.9 -2.5,-6.7 l 0,-13.3 -3.3,0 0,-4.4 3.3,0 0,-8.3 5.6,0 0,8.3 7,0 0,4.5 -7,0 z" /><path
         style="fill:#3e4555"
         id="path3533"
         d="m 479.3,282.7 -20.8,0 c 0.1,1.9 1,3.5 2.6,4.7 1.6,1.2 3.5,1.8 5.6,1.8 3.3,0 5.9,-1 7.6,-3.1 l 3.2,3.5 c -2.9,3 -6.6,4.4 -11.2,4.4 -3.7,0 -6.9,-1.2 -9.5,-3.7 -2.6,-2.5 -3.9,-5.8 -3.9,-10 0,-4.2 1.3,-7.5 4,-10 2.7,-2.5 5.8,-3.7 9.4,-3.7 3.6,0 6.7,1.1 9.2,3.3 2.5,2.2 3.8,5.2 3.8,9 l 0,3.8 z m -20.8,-4.4 15.2,0 c 0,-2.2 -0.7,-3.9 -2.1,-5.1 -1.4,-1.2 -3.1,-1.8 -5.2,-1.8 -2,0 -3.9,0.6 -5.5,1.9 -1.6,1.2 -2.4,2.9 -2.4,5 z" /><path
         style="fill:#3e4555"
         id="path3535"
         d="m 508.7,267 0,23.2 c 0,4.7 -1.3,8.2 -3.8,10.6 -2.5,2.4 -5.8,3.5 -9.8,3.5 -4,0 -7.6,-1.2 -10.8,-3.7 l 2.6,-4.2 c 2.6,2 5.2,2.9 7.9,2.9 2.7,0 4.7,-0.7 6.3,-2 1.5,-1.4 2.3,-3.5 2.3,-6.5 l 0,-3.4 c -0.8,1.6 -2,2.8 -3.6,3.7 -1.6,0.9 -3.3,1.4 -5.2,1.4 -3.5,0 -6.4,-1.2 -8.7,-3.7 -2.3,-2.5 -3.4,-5.5 -3.4,-9.2 0,-3.7 1.1,-6.7 3.4,-9.2 2.3,-2.5 5.2,-3.7 8.7,-3.7 3.5,0 6.4,1.4 8.6,4.3 l 0,-4 5.5,0 z M 488,279.2 c 0,2.2 0.7,4.1 2,5.6 1.3,1.6 3.2,2.4 5.4,2.4 2.3,0 4.1,-0.8 5.5,-2.3 1.4,-1.5 2.1,-3.4 2.1,-5.7 0,-2.3 -0.7,-4.2 -2.1,-5.8 -1.4,-1.6 -3.3,-2.4 -5.5,-2.4 -2.3,0 -4.1,0.8 -5.4,2.4 -1.3,1.7 -2,3.7 -2,5.8 z" /><path
         style="fill:#3e4555"
         id="path3537"
         d="m 538.8,282.7 -20.8,0 c 0.1,1.9 1,3.5 2.6,4.7 1.6,1.2 3.5,1.8 5.6,1.8 3.3,0 5.9,-1 7.6,-3.1 l 3.2,3.5 c -2.9,3 -6.6,4.4 -11.2,4.4 -3.7,0 -6.9,-1.2 -9.5,-3.7 -2.6,-2.5 -3.9,-5.8 -3.9,-10 0,-4.2 1.3,-7.5 4,-10 2.7,-2.5 5.8,-3.7 9.4,-3.7 3.6,0 6.7,1.1 9.2,3.3 2.5,2.2 3.8,5.2 3.8,9 l 0,3.8 z m -20.8,-4.4 15.2,0 c 0,-2.2 -0.7,-3.9 -2.1,-5.1 -1.4,-1.2 -3.1,-1.8 -5.2,-1.8 -2,0 -3.9,0.6 -5.5,1.9 -1.6,1.2 -2.4,2.9 -2.4,5 z" /><path
         style="fill:#3e4555"
         id="path3539"
         d="m 557,272.2 c -2.8,0 -4.8,0.9 -6.2,2.7 -1.4,1.8 -2.1,4.2 -2.1,7.2 l 0,11.4 -5.6,0 0,-26.5 5.6,0 0,5.3 c 0.9,-1.7 2.1,-3 3.7,-4.1 1.6,-1.1 3.2,-1.6 4.9,-1.6 l 0.1,5.6 c -0.2,0 -0.3,0 -0.4,0 z" /><path
         style="fill:#3e4555"
         id="path3541"
         d="m 574,263.9 0,-5.2 20.4,0 0,4.6 -8.4,9.4 c 3.2,0.1 5.7,1.1 7.5,3 1.8,1.9 2.7,4.2 2.7,6.9 0,3.6 -1.2,6.4 -3.6,8.4 -2.4,2 -5.5,3 -9.3,3 -3.8,0 -7.5,-1.2 -11.1,-3.6 l 2.5,-4.7 c 2.9,2 5.9,3 9,3 2,0 3.7,-0.5 5,-1.4 1.3,-0.9 2,-2.3 2,-4.1 0,-1.8 -0.7,-3.2 -2.2,-4.3 -1.5,-1.1 -3.5,-1.6 -6.1,-1.6 -1.3,0 -2.5,0.2 -3.7,0.5 l 0,-4.5 8.1,-9.4 -12.8,0 z" /><path
         style="fill:#3e4555"
         id="path3543"
         d="m 615.7,272.3 c 1,-1.4 1.5,-2.7 1.5,-4.1 0,-1.4 -0.5,-2.6 -1.6,-3.6 -1.1,-1 -2.4,-1.5 -4,-1.5 -2.9,0 -5.2,1.5 -7.1,4.4 l -4.7,-2.7 c 1.5,-2.3 3.2,-4 5.1,-5.2 1.8,-1.2 4.2,-1.7 7.1,-1.7 2.9,0 5.5,0.9 7.7,2.8 2.2,1.8 3.3,4.4 3.3,7.6 0,1.8 -0.5,3.5 -1.4,5.1 -0.9,1.6 -2.6,3.7 -5.1,6.3 l -8.2,8.3 15.8,0 0,5.6 -23.9,0 0,-5 10.6,-10.6 c 2.2,-2.5 3.9,-4.4 4.9,-5.7 z" /></g></g></svg>